# xmcd CD database file
#
# Track frame offsets:
#	150
#	16337
#	36847
#	48438
#	63822
#	78487
#	91210
#	121460
#	145949
#	162823
#	185084
#	201835
#	218284
#	235294
#	260086
#	279151
#	305786
#	319109
#
# Disc length: 4355 seconds
#
# Revision: 0
# Processed by: cddbd v1.5.2PL0 Copyright (c) Steve Scherf et al.
# Submitted via: CDex 1.70beta2
#
DISCID=fb110112
DTITLE=Various Artist - Feel Jazz f0r Christmas CD2
DYEAR=2009
DGENRE=Jazz
TTITLE0=Betsy Curtis feat. Loren Wilken - Jingle Bells
TTITLE1=Mark Ayers - Merry Christmas, Mr. Lawrence
TTITLE2=Jazz Musicians - Have Yourself a Merry Little Christmas
TTITLE3=Jacqui Naylor - Celebrate Early and Often
TTITLE4=Mike Goudreau and Friends - It's My Favourite Time of Year
TTITLE5=Jazz Musicians - The Christmas Songs
TTITLE6=Racquel Robert - Christmas Time Is Here
TTITLE7=God Rest Ye Merry Gentlemen
TTITLE8=John Fluker feat. Florence Larule - You to the World
TTITLE9=Jazz Musicians - The Twelve Days of Christmas
TTITLE10=Terry White - It's Christmas and I'm Dreaming
TTITLE11=Jazz Musicians - Frosty the Snowman
TTITLE12=Betsy Curtis feat. Loren Wilken - I'll Be Home for Christmas
TTITLE13=Christoph Spendel Christmas Jazz Trio - Silent Night
TTITLE14=Pam Parvis - Winter Warm
TTITLE15=Little Town of Bethlehem
TTITLE16=Joe Bourne - White Christmas
TTITLE17=Joe Bourne - We Wish You a Merry Christmas
EXTD=YEAR: 2009
EXTT0=
EXTT1=
EXTT2=
EXTT3=
EXTT4=
EXTT5=
EXTT6=
EXTT7=
EXTT8=
EXTT9=
EXTT10=
EXTT11=
EXTT12=
EXTT13=
EXTT14=
EXTT15=
EXTT16=
EXTT17=
PLAYORDER=
